<?xml version="1.0" encoding="utf-8"?>
<!-- Generator: Adobe Illustrator 16.0.0, SVG Export Plug-In . SVG Version: 6.00 Build 0)  -->
<!DOCTYPE svg PUBLIC "-//W3C//DTD SVG 1.1//EN" "http://www.w3.org/Graphics/SVG/1.1/DTD/svg11.dtd">
<svg version="1.1" id="Layer_1" xmlns="http://www.w3.org/2000/svg" xmlns:xlink="http://www.w3.org/1999/xlink" x="0px" y="0px"
	 width="409.602px" height="409.602px" viewBox="0 0 409.602 409.602" enable-background="new 0 0 409.602 409.602"
	 xml:space="preserve">
<g>
	<path fill="#252525" d="M0,409.602h204.801V0H0V409.602z M128,51.199h51.199v51.199H128V51.199z M128,153.602h51.199v51.199H128
		V153.602z M128,256h51.199v51.199H128V256z M25.602,51.199h51.199v51.199H25.602V51.199z M25.602,153.602h51.199v51.199H25.602
		V153.602z M25.602,256h51.199v51.199H25.602V256z M230.398,128h179.203v25.602H230.398V128z M230.398,409.602h51.203V307.199
		h76.797v102.402h51.203V179.199H230.398V409.602z M230.398,409.602"/>
</g>
</svg>
