<?xml version="1.0" encoding="utf-8"?>
<!-- Generator: Adobe Illustrator 16.0.0, SVG Export Plug-In . SVG Version: 6.00 Build 0)  -->
<!DOCTYPE svg PUBLIC "-//W3C//DTD SVG 1.1//EN" "http://www.w3.org/Graphics/SVG/1.1/DTD/svg11.dtd">
<svg version="1.1" id="Layer_1" xmlns="http://www.w3.org/2000/svg" xmlns:xlink="http://www.w3.org/1999/xlink" x="0px" y="0px"
	 width="332.801px" height="409.602px" viewBox="0 0 332.801 409.602" enable-background="new 0 0 332.801 409.602"
	 xml:space="preserve">
<g>
	<path fill="#FFFFFF" d="M312.5,301.902l-93.145,93.145l-1.754-0.73V320c0-14.145,11.453-25.602,25.598-25.602h66.191
		C310.887,298.008,311,298.277,312.5,301.902L312.5,301.902z M312.5,301.902"/>
	<path fill="#FFFFFF" d="M294.398,12.801V0h-256C17.191,0.012,0.012,17.191,0,38.398v332.801
		c0.012,21.211,17.191,38.387,38.398,38.402h168.59c10.188,0,19.957-4.047,27.148-11.254l87.41-87.41
		c7.207-7.195,11.254-16.961,11.254-27.148V38.398C332.789,17.191,315.609,0.012,294.398,0v25.602
		c7.066,0.011,12.789,5.734,12.801,12.796v245.391c0,3.391-1.344,6.656-3.75,9.051l-87.41,87.41c-2.395,2.406-5.645,3.75-9.051,3.75
		H38.398c-7.062-0.012-12.785-5.734-12.796-12.801V38.398c0.011-7.062,5.734-12.785,12.796-12.796h256V12.801z M294.398,12.801"/>
	<polyline fill="#FFFFFF" points="51.199,281.602 179.199,281.602 179.199,256 51.199,256 	"/>
	<polyline fill="#FFFFFF" points="51.199,230.398 281.602,230.398 281.602,204.801 51.199,204.801 	"/>
	<polyline fill="#FFFFFF" points="51.199,332.801 179.199,332.801 179.199,307.199 51.199,307.199 	"/>
	<path fill="#FFFFFF" d="M230.398,102.398h-51.199V51.199h-25.597v51.199h-51.204V128h51.204v51.199h25.597V128h51.199V102.398z
		 M230.398,102.398"/>
</g>
</svg>
