<?xml version="1.0" encoding="utf-8"?>
<!-- Generator: Adobe Illustrator 16.0.0, SVG Export Plug-In . SVG Version: 6.00 Build 0)  -->
<!DOCTYPE svg PUBLIC "-//W3C//DTD SVG 1.1//EN" "http://www.w3.org/Graphics/SVG/1.1/DTD/svg11.dtd">
<svg version="1.1" id="Layer_1" xmlns="http://www.w3.org/2000/svg" xmlns:xlink="http://www.w3.org/1999/xlink" x="0px" y="0px"
	 width="42px" height="76.901px" viewBox="0 0 42 76.901" enable-background="new 0 0 42 76.901" xml:space="preserve">
<g>
	<g>
		<defs>
			<rect id="SVGID_1_" width="42" height="76.901"/>
		</defs>
		<clipPath id="SVGID_2_">
			<use xlink:href="#SVGID_1_"  overflow="visible"/>
		</clipPath>
		<path clip-path="url(#SVGID_2_)" d="M40.012-0.083l-9.973-0.015c-11.203,0-18.445,7.429-18.445,18.925v8.727H1.566
			C0.703,27.554,0,28.253,0,29.12v12.645c0,0.863,0.703,1.566,1.566,1.566h10.028v31.902c0,0.863,0.703,1.566,1.57,1.566h13.078
			c0.867,0,1.569-0.703,1.569-1.566V43.331h11.724c0.867,0,1.566-0.703,1.566-1.566l0.008-12.645c0-0.414-0.168-0.812-0.461-1.109
			c-0.293-0.293-0.691-0.457-1.109-0.457H27.812v-7.398c0-3.555,0.849-5.36,5.478-5.36l6.719-0.004c0.867,0,1.566-0.703,1.566-1.566
			V1.488C41.574,0.62,40.875-0.079,40.012-0.083L40.012-0.083z M40.012-0.083"/>
	</g>
</g>
</svg>
