<?xml version="1.0" encoding="utf-8"?>
<!-- Generator: Adobe Illustrator 16.0.0, SVG Export Plug-In . SVG Version: 6.00 Build 0)  -->
<!DOCTYPE svg PUBLIC "-//W3C//DTD SVG 1.1//EN" "http://www.w3.org/Graphics/SVG/1.1/DTD/svg11.dtd">
<svg version="1.1" id="Layer_1" xmlns="http://www.w3.org/2000/svg" xmlns:xlink="http://www.w3.org/1999/xlink" x="0px" y="0px"
	 width="25.92px" height="22.97px" viewBox="0 0 25.92 22.97" enable-background="new 0 0 25.92 22.97" xml:space="preserve">
<g>
	<g>
		<defs>
			<rect id="SVGID_1_" width="25.92" height="22.97"/>
		</defs>
		<clipPath id="SVGID_2_">
			<use xlink:href="#SVGID_1_"  overflow="visible"/>
		</clipPath>
		<rect x="5.5" y="-0.03" clip-path="url(#SVGID_2_)" width="14.094" height="4.043"/>
	</g>
	<path d="M23.871,5.47H1.227C0.551,5.47,0,6.02,0,6.696v8.985h3.68v-5.454h17.734v5.454h3.676V6.696
		C25.09,6.02,24.547,5.47,23.871,5.47L23.871,5.47z M3.48,8.47c-0.539,0-0.976-0.438-0.976-0.977c0-0.543,0.437-0.98,0.976-0.98
		c0.54,0,0.977,0.437,0.977,0.98C4.457,8.032,4.02,8.47,3.48,8.47L3.48,8.47z M22.465,7.872H5.5V6.7h16.965V7.872z M22.465,7.872"/>
	<path d="M17.969,21.126h-7.891l-2.973,0.015v-9.468H5.324v9.648c0,0-0.066,1.48,1.453,1.48h11.727c1.121,0,1.266-0.86,1.266-1.914
		v-9.215h-1.777L17.969,21.126z M17.969,21.126"/>
	<rect x="7.984" y="14.234" width="8.965" height="1.552"/>
	<rect x="8.062" y="17.743" width="8.973" height="1.547"/>
</g>
</svg>
