<?xml version="1.0" encoding="utf-8"?>
<!-- Generator: Adobe Illustrator 16.0.0, SVG Export Plug-In . SVG Version: 6.00 Build 0)  -->
<!DOCTYPE svg PUBLIC "-//W3C//DTD SVG 1.1//EN" "http://www.w3.org/Graphics/SVG/1.1/DTD/svg11.dtd">
<svg version="1.1" id="Layer_1" xmlns="http://www.w3.org/2000/svg" xmlns:xlink="http://www.w3.org/1999/xlink" x="0px" y="0px"
	 width="15.051px" height="17.129px" viewBox="0 0 15.051 17.129" enable-background="new 0 0 15.051 17.129" xml:space="preserve">
<g>
	<path fill="#FFFFFF" d="M2.562,7.34L4.66,6.598V1.844H2.562V7.34z M2.562,7.34"/>
	<path fill="#FFFFFF" d="M8.309,7.34l2.098-0.742V1.844H8.309V7.34z M8.309,7.34"/>
	<path fill="#FFFFFF" d="M0,17.129h15.051v-5.121H0V17.129z M7.207,12.797h1.617v2.582H7.207V12.797z M4.355,12.797h1.614v2.582
		H4.355V12.797z M1.395,12.797h1.613v2.582H1.395V12.797z M1.395,12.797"/>
	<path fill="#FFFFFF" d="M11.496,8.977l-0.41-2.09l-5.234,2.09l-0.625-2.09L0,8.977v2.23h15.051v-2.23H11.496z M11.496,8.977"/>
	<path fill="#FFFFFF" d="M1.613,1.504c0.262-0.051,0.465-0.199,0.629-0.359C2.406,0.98,2.535,0.816,2.727,0.719
		c0.179-0.102,0.41-0.133,0.562-0.102C3.43,0.641,3.52,0.703,3.625,0.867C3.727,1.02,3.797,1.219,3.887,1.426H3.93
		c0.074-0.223,0.078-0.461,0-0.699C3.891,0.609,3.82,0.484,3.707,0.391C3.594,0.289,3.426,0.242,3.289,0.258
		C3,0.293,2.832,0.477,2.652,0.602C2.477,0.727,2.293,0.867,2.105,0.949C1.914,1.031,1.727,1.09,1.559,1.102
		c-0.168,0.003-0.301-0.051-0.43-0.153C0.855,0.746,0.641,0.375,0.41,0L0.367,0.008C0.34,0.461,0.449,0.941,0.84,1.305
		C1.039,1.484,1.355,1.566,1.613,1.504L1.613,1.504z M1.613,1.504"/>
	<path fill="#FFFFFF" d="M8.109,1.539C8.309,1.5,8.449,1.383,8.559,1.258c0.109-0.121,0.199-0.242,0.328-0.305
		c0.125-0.07,0.297-0.066,0.379-0.035C9.34,0.945,9.375,0.957,9.453,1.059C9.527,1.152,9.59,1.281,9.676,1.426h0.043
		C9.797,1.27,9.805,1.098,9.758,0.918C9.73,0.828,9.68,0.734,9.594,0.66C9.508,0.578,9.371,0.543,9.266,0.559
		C9.047,0.594,8.938,0.742,8.812,0.832c-0.12,0.098-0.253,0.184-0.39,0.234C8.289,1.105,8.156,1.137,8.055,1.137
		C7.953,1.133,7.887,1.098,7.809,1.039c-0.172-0.113-0.34-0.355-0.536-0.605L7.23,0.441c-0.062,0.325,0,0.676,0.29,0.957
		C7.668,1.531,7.914,1.594,8.109,1.539L8.109,1.539z M8.109,1.539"/>
</g>
</svg>
