<?xml version="1.0" encoding="utf-8"?>
<!-- Generator: Adobe Illustrator 16.0.0, SVG Export Plug-In . SVG Version: 6.00 Build 0)  -->
<!DOCTYPE svg PUBLIC "-//W3C//DTD SVG 1.1//EN" "http://www.w3.org/Graphics/SVG/1.1/DTD/svg11.dtd">
<svg version="1.1" id="Layer_1" xmlns="http://www.w3.org/2000/svg" xmlns:xlink="http://www.w3.org/1999/xlink" x="0px" y="0px"
	 width="354px" height="340px" viewBox="0 0 354 340" enable-background="new 0 0 354 340" xml:space="preserve">
<g>
	<g>
		<defs>
			<rect id="SVGID_1_" width="354" height="340"/>
		</defs>
		<clipPath id="SVGID_2_">
			<use xlink:href="#SVGID_1_"  overflow="visible"/>
		</clipPath>
		<path clip-path="url(#SVGID_2_)" fill="#FFFFFF" d="M352.285,96.582c0-0.047,0.004-0.09,0.008-0.133l1.297-67.793
			c0.07-3.688-2.395-6.949-5.961-7.887l-77.832-20.48c-0.012-0.004-0.027-0.008-0.039-0.012l-0.063-0.016
			c-0.027-0.008-0.051-0.008-0.078-0.015c-0.301-0.078-0.609-0.133-0.926-0.172c-0.09-0.012-0.184-0.024-0.277-0.035
			c-0.078-0.008-0.152-0.02-0.23-0.028c-0.242-0.015-0.48-0.015-0.719-0.008c-0.031,0-0.063-0.003-0.098,0
			c-0.34,0.012-0.672,0.051-1,0.106c-0.102,0.016-0.199,0.039-0.297,0.059c-0.281,0.054-0.559,0.125-0.832,0.214
			c-0.047,0.012-0.094,0.02-0.141,0.036l-101.02,34.136l-41.937,5.086c-1.637,0.199-3.176,0.903-4.403,2.008L5.152,143.472
			c-1.867,1.692-2.832,4.16-2.601,6.668l4.027,43.594l-6.566,91.194c-0.004,0.051,0.004,0.103,0,0.153
			c-0.016,0.261-0.016,0.527-0.004,0.793c0.004,0.082,0.008,0.168,0.012,0.25c0.027,0.32,0.066,0.64,0.128,0.957
			c0.012,0.043,0.024,0.086,0.036,0.128c0.058,0.278,0.136,0.551,0.226,0.821c0.024,0.078,0.051,0.151,0.078,0.229
			c0.102,0.274,0.215,0.543,0.348,0.806c0.012,0.03,0.023,0.062,0.039,0.09c0.148,0.289,0.32,0.569,0.504,0.844
			c0.047,0.066,0.094,0.125,0.141,0.191c0.144,0.194,0.296,0.387,0.46,0.573c0.071,0.082,0.141,0.16,0.215,0.238
			c0.047,0.051,0.09,0.106,0.137,0.153c0.141,0.14,0.289,0.265,0.438,0.394c0.046,0.039,0.089,0.086,0.136,0.125
			c0.258,0.215,0.528,0.403,0.805,0.578c0.023,0.016,0.039,0.032,0.062,0.047l73.918,45.832c0.043,0.028,0.09,0.047,0.133,0.071
			c0.238,0.144,0.481,0.272,0.731,0.386c0.066,0.032,0.129,0.063,0.199,0.09c0.305,0.133,0.617,0.25,0.934,0.34
			c0.046,0.013,0.093,0.021,0.136,0.031c0.278,0.075,0.555,0.133,0.832,0.176c0.09,0.017,0.184,0.031,0.274,0.039
			c0.312,0.039,0.625,0.067,0.941,0.067c0.012,0,0.024,0.003,0.035,0.003c0.242,0,0.485-0.011,0.727-0.035l101.328-9.211
			c0.004,0,0.012,0,0.016,0c0.277-0.027,0.551-0.066,0.824-0.121c0.051-0.011,0.098-0.022,0.148-0.035
			c0.219-0.051,0.438-0.104,0.652-0.172c0.074-0.019,0.145-0.051,0.219-0.074c0.188-0.065,0.375-0.133,0.559-0.211
			c0.078-0.034,0.156-0.073,0.234-0.108c0.172-0.082,0.34-0.164,0.504-0.254c0.086-0.052,0.168-0.099,0.25-0.149
			c0.148-0.093,0.297-0.183,0.441-0.285c0.094-0.065,0.18-0.133,0.273-0.199c0.125-0.098,0.246-0.194,0.367-0.301
			c0.098-0.082,0.191-0.168,0.285-0.258c0.051-0.05,0.105-0.089,0.156-0.14c0.059-0.06,0.109-0.121,0.164-0.181
			c0.086-0.094,0.172-0.187,0.257-0.285c0.106-0.124,0.208-0.254,0.306-0.383c0.043-0.055,0.09-0.108,0.133-0.164l161.055-225.832
			c0.012-0.012,0.02-0.027,0.027-0.043c0.063-0.086,0.117-0.176,0.176-0.266c0.059-0.093,0.121-0.183,0.176-0.281
			c0.059-0.094,0.109-0.191,0.164-0.289c0.051-0.098,0.098-0.195,0.145-0.293c0.051-0.097,0.094-0.195,0.141-0.297
			c0.047-0.109,0.09-0.222,0.133-0.332c0.035-0.093,0.07-0.183,0.102-0.277c0.063-0.18,0.113-0.363,0.164-0.543
			c0.008-0.039,0.02-0.078,0.031-0.117c0.051-0.207,0.09-0.422,0.125-0.633c0.004-0.02,0.008-0.039,0.012-0.063
			c0.008-0.043,0.008-0.085,0.016-0.132c0.023-0.18,0.043-0.36,0.055-0.543C352.277,96.746,352.281,96.664,352.285,96.582
			L352.285,96.582z M336.469,87l-10.508-1.614c-4.367-0.66-8.449,2.328-9.121,6.696c-0.668,4.367,2.328,8.449,6.695,9.121
			l6.699,1.027L182.211,309.785l-33.719-33.719l44.43-44.431c0.758-0.758,1.355-1.656,1.758-2.647l37.266-91.801l34.219-44.785
			l30.484,4.676c0.413,0.062,0.82,0.093,1.223,0.093c3.883,0,7.293-2.832,7.898-6.789c0.672-4.367-2.328-8.449-6.695-9.121
			l-27.926-4.281l3.859-58.777l62.465,16.437L336.469,87z M20.785,284.022L123.559,181.25l1.492,5.003
			c1.035,3.469,4.219,5.715,7.664,5.715c0.758,0,1.527-0.108,2.289-0.336c4.234-1.261,6.641-5.718,5.379-9.949l-3.121-10.469
			l73.699-24.871l-30.496,75.125l-21.738,21.739l-10.575-35.461c-1.261-4.231-5.714-6.642-9.949-5.379
			c-4.234,1.261-6.644,5.718-5.383,9.953l13.043,43.746l-14.34,14.34c0,0,0,0.004-0.003,0.004l-50.786,50.785L20.785,284.022z
			 M137.18,287.378l28.324,28.325l-62.316,5.664L137.18,287.378z M126.59,55.218l26.566-3.222L142.391,77.66l-55.2,45.621
			c-3.406,2.816-3.886,7.859-1.07,11.265c1.582,1.914,3.867,2.903,6.172,2.903c1.793,0,3.598-0.602,5.09-1.832l56.719-46.879
			c0.996-0.824,1.781-1.879,2.281-3.07L171.84,48.82l87.051-29.418l-4.031,61.433l-34.798,45.551l-95.229,32.133
			c-0.066,0.024-0.129,0.055-0.195,0.082c-0.176,0.063-0.348,0.133-0.52,0.207c-0.094,0.043-0.183,0.086-0.273,0.129
			c-0.184,0.09-0.356,0.188-0.528,0.289c-0.078,0.043-0.152,0.086-0.226,0.133c-0.188,0.121-0.371,0.254-0.547,0.387
			c-0.055,0.039-0.105,0.074-0.156,0.117c-0.239,0.191-0.465,0.39-0.676,0.605l-104.199,104.2l4.824-67.028l54.082-44.695
			c3.406-2.817,3.883-7.86,1.07-11.262c-2.816-3.41-7.859-3.887-11.265-1.07l-45.047,37.226l-2.324-25.183L126.59,55.218z
			 M126.59,55.218"/>
	</g>
</g>
</svg>
