<?xml version="1.0" encoding="utf-8"?>
<!-- Generator: Adobe Illustrator 16.0.0, SVG Export Plug-In . SVG Version: 6.00 Build 0)  -->
<!DOCTYPE svg PUBLIC "-//W3C//DTD SVG 1.1//EN" "http://www.w3.org/Graphics/SVG/1.1/DTD/svg11.dtd">
<svg version="1.1" id="Layer_1" xmlns="http://www.w3.org/2000/svg" xmlns:xlink="http://www.w3.org/1999/xlink" x="0px" y="0px"
	 width="386.641px" height="294.238px" viewBox="0 0 386.641 294.238" enable-background="new 0 0 386.641 294.238"
	 xml:space="preserve">
<g>
	<path d="M339.441,0H47.281C21.199,0,0,21.199,0,47.281v199.68c0,26.078,21.199,47.277,47.281,47.277h292.079
		c26.082,0,47.281-21.199,47.281-47.277V47.359C386.719,21.281,365.52,0,339.441,0L339.441,0z M365.121,246.961
		c0,14.16-11.52,25.681-25.68,25.681H47.281c-14.16,0-25.679-11.521-25.679-25.681V47.359c0-14.16,11.519-25.679,25.679-25.679
		h292.079c14.16,0,25.68,11.519,25.68,25.679v199.602H365.121z M365.121,246.961"/>
	<path d="M243.84,144.641l94.559-84.801c4.402-4,4.801-10.801,0.801-15.281c-4-4.399-10.801-4.797-15.277-0.797L193.52,160.801
		l-25.441-22.723c-0.078-0.078-0.156-0.156-0.156-0.238c-0.563-0.559-1.121-1.039-1.762-1.52L62.641,43.68
		c-4.481-4-11.282-3.602-15.282,0.879c-4,4.48-3.597,11.281,0.879,15.281l95.684,85.519l-95.281,89.2
		c-4.321,4.082-4.563,10.882-0.481,15.28c2.16,2.238,5.039,3.441,7.918,3.441c2.641,0,5.281-0.961,7.363-2.883l96.719-90.477
		l26.238,23.438c2.082,1.84,4.641,2.719,7.204,2.719c2.559,0,5.199-0.957,7.199-2.797l26.961-24.16l96.16,91.359
		c2.078,2,4.797,2.961,7.438,2.961c2.879,0,5.68-1.121,7.84-3.363c4.082-4.316,3.922-11.199-0.398-15.277L243.84,144.641z
		 M243.84,144.641"/>
</g>
</svg>
