<?xml version="1.0" encoding="utf-8"?>
<!-- Generator: Adobe Illustrator 16.0.0, SVG Export Plug-In . SVG Version: 6.00 Build 0)  -->
<!DOCTYPE svg PUBLIC "-//W3C//DTD SVG 1.1//EN" "http://www.w3.org/Graphics/SVG/1.1/DTD/svg11.dtd">
<svg version="1.1" id="Layer_1" xmlns="http://www.w3.org/2000/svg" xmlns:xlink="http://www.w3.org/1999/xlink" x="0px" y="0px"
	 width="12.434px" height="21.954px" viewBox="0 0 12.434 21.954" enable-background="new 0 0 12.434 21.954" xml:space="preserve">
<path d="M10.836,0H1.598C0.715,0,0,0.719,0,1.598v18.758c0,0.883,0.715,1.598,1.598,1.598h9.238c0.883,0,1.598-0.715,1.598-1.598
	V1.598C12.434,0.719,11.719,0,10.836,0L10.836,0z M3.938,0.973h4.558c0.117,0,0.211,0.172,0.211,0.383
	c0,0.215-0.094,0.387-0.211,0.387H3.938c-0.118,0-0.208-0.172-0.208-0.387C3.73,1.145,3.82,0.973,3.938,0.973L3.938,0.973z
	 M6.219,20.375c-0.563,0-1.024-0.457-1.024-1.019c0-0.563,0.461-1.021,1.024-1.021c0.559,0,1.016,0.457,1.016,1.021
	C7.234,19.918,6.777,20.375,6.219,20.375L6.219,20.375z M11.234,16.879H1.199V2.7h10.035V16.879z M11.234,16.879"/>
</svg>
