<?xml version="1.0" encoding="utf-8"?>
<!-- Generator: Adobe Illustrator 16.0.0, SVG Export Plug-In . SVG Version: 6.00 Build 0)  -->
<!DOCTYPE svg PUBLIC "-//W3C//DTD SVG 1.1//EN" "http://www.w3.org/Graphics/SVG/1.1/DTD/svg11.dtd">
<svg version="1.1" id="Layer_1" xmlns="http://www.w3.org/2000/svg" xmlns:xlink="http://www.w3.org/1999/xlink" x="0px" y="0px"
	 width="222.398px" height="282.016px" viewBox="0 0 222.398 282.016" enable-background="new 0 0 222.398 282.016"
	 xml:space="preserve">
<g>
	<path d="M111.199,0C49.883,0,0,49.882,0,111.199c0,22.597,6.742,44.355,19.5,62.91c11.773,17.129,27.898,30.5,46.797,38.844
		l36.199,63.984c1.774,3.137,5.102,5.078,8.703,5.078c3.602,0,6.93-1.941,8.703-5.078l36.199-63.984
		c18.898-8.344,35.023-21.715,46.797-38.844c12.758-18.555,19.5-40.313,19.5-62.91C222.398,49.882,172.516,0,111.199,0L111.199,0z
		 M145.332,195.793c-2.098,0.848-3.844,2.383-4.961,4.348l-29.172,51.566l-29.172-51.566c-1.113-1.965-2.863-3.5-4.957-4.348
		c-34.668-14-57.07-47.207-57.07-84.594C20,60.91,60.91,20,111.199,20s91.199,40.91,91.199,91.199
		C202.398,148.586,180,181.793,145.332,195.793L145.332,195.793z M145.332,195.793"/>
	<path d="M111.199,68.605c-23.16,0-42,18.844-42,42c0,23.16,18.84,42,42,42s42-18.84,42-42
		C153.199,87.449,134.359,68.605,111.199,68.605L111.199,68.605z M111.199,132.605c-12.129,0-22-9.867-22-22
		c0-12.129,9.871-22,22-22c12.133,0,22,9.871,22,22C133.199,122.738,123.332,132.605,111.199,132.605L111.199,132.605z
		 M111.199,132.605"/>
</g>
</svg>
