<?xml version="1.0" encoding="utf-8"?>
<!-- Generator: Adobe Illustrator 16.0.0, SVG Export Plug-In . SVG Version: 6.00 Build 0)  -->
<!DOCTYPE svg PUBLIC "-//W3C//DTD SVG 1.1//EN" "http://www.w3.org/Graphics/SVG/1.1/DTD/svg11.dtd">
<svg version="1.1" id="Layer_1" xmlns="http://www.w3.org/2000/svg" xmlns:xlink="http://www.w3.org/1999/xlink" x="0px" y="0px"
	 width="45.285px" height="40.402px" viewBox="0 0 45.285 40.402" enable-background="new 0 0 45.285 40.402" xml:space="preserve">
<g>
	<path fill="#FFFFFF" d="M36.266,23.664l-3.047,4.723l-2.02-0.813l-7.031,12.828h8.262l3.621-4.801h3.109l3.324,4.801h2.801
		l-6.41-16.031L36.266,23.664z M36.266,23.664"/>
	<path fill="#FFFFFF" d="M38.742,36.402h-2.293l-3.016,4h8.078L38.742,36.402z M38.742,36.402"/>
	<path fill="#FFFFFF" d="M3.211,32.723l-2.375,7.68h3.297l2.64-7.648l0.754-5.949h2.516l2.262,6.168l-1.383,7.43h3.203l1.574-8.418
		l-1.574-4.438l-0.57-2.004l8.664,4.906l-1.629,2.824l3.777,2.176l3.992-6.934l-3.773-2.176l-1.57,2.723L12.93,23.348l-0.547-1.91
		l0.992-4.009l0.426,3.665l0.683,1.777l2.704,1.582l-1.122-3.984l-0.867-7.649l-2.801-0.117l-0.492-1.356
		c1.879-0.382,3.289-2,3.395-3.96l-8.43-1.118C6.809,6.558,6.773,6.855,6.773,7.16c0,1.48,0.754,2.785,1.895,3.551l-0.074-0.008
		l-1.688,1.418l-2.16-0.18L0,16.09v6.313l3.77,0.934L3.211,32.723z M2.398,20.109v-1.888L4,16.762v3.707L2.398,20.109z
		 M2.398,20.109"/>
	<path fill="#FFFFFF" d="M15.262,6.574l1.281,0.168c0.172-3.805-1.484-6.297-4.477-6.695C11.82,0.015,11.574,0,11.336,0
		c-2.652,0-4.582,1.941-5.34,5.344l1.117,0.148L15.262,6.574z M15.262,6.574"/>
</g>
</svg>
